<svg viewBox="229.242 252.424 60 45" version="1.1" xmlns="http://www.w3.org/2000/svg" xmlns:xlink="http://www.w3.org/1999/xlink" xmlns:penpot="https://penpot.app/xmlns" style="width:100%;height:100%;background:#E8E9EA" fill="none"><penpot:page id="ee63301e-1fa7-81b1-8004-635dcb67c746"></penpot:page><g id="shape-e433fa85-8c4a-80d1-8004-635ddc6e6ebd"><penpot:shape penpot:name="Ajouter un titre (215 x 100 px) (1)" penpot:type="frame" penpot:hide-fill-on-export="false" penpot:transform="matrix(1.000000, 0.000000, 0.000000, 1.000000, 0.000000, 0.000000)" penpot:transform-inverse="matrix(1.000000, 0.000000, 0.000000, 1.000000, 0.000000, 0.000000)" penpot:proportion="1" penpot:proportion-lock="false" penpot:rotation="0" penpot:center-x="259.2424011230469" penpot:center-y="274.9242401123047" penpot:show-content="true" penpot:hide-in-viewer="true" penpot:component-file="ee63301e-1fa7-81b1-8004-635dcb67c745" penpot:component-id="e433fa85-8c4a-80d1-8004-635ddc6efde5" penpot:component-root="true" penpot:main-instance="true"></penpot:shape><defs></defs><g fill="none"><g class="fills" id="fills-e433fa85-8c4a-80d1-8004-635ddc6e6ebd"><rect rx="0" ry="0" x="229.24240112304688" y="252.4242401123047" width="60" height="45" transform="matrix(1.000000, 0.000000, 0.000000, 1.000000, 0.000000, 0.000000)" class="frame-background"></rect></g><g class="frame-children"><g id="shape-e433fa85-8c4a-80d1-8004-635ddc6e6ebe" style="fill:#000000" width="80" height="60" version="1.0" rx="0" ry="0"><penpot:shape penpot:name="Ajouter un titre (215 x 100 px) (1)" penpot:type="group" penpot:transform="matrix(1.000000, 0.000000, 0.000000, 1.000000, 0.000000, 0.000000)" penpot:transform-inverse="matrix(1.000000, 0.000000, 0.000000, 1.000000, 0.000000, 0.000000)" penpot:flip-x="false" penpot:flip-y="false" penpot:proportion="1" penpot:proportion-lock="false" penpot:rotation="0" penpot:center-x="259.2424011230469" penpot:center-y="274.9242401123047" penpot:constraints-h="scale" penpot:constraints-v="scale"><penpot:svg-import penpot:svg-attrs="width,height,version"></penpot:svg-import></penpot:shape><defs></defs><g id="shape-e433fa85-8c4a-80d1-8004-635ddc6e6ec0"><penpot:shape penpot:name="svg-defs" penpot:type="svg-raw" penpot:transform="matrix(1.000000, 0.000000, 0.000000, 1.000000, 0.000000, 0.000000)" penpot:transform-inverse="matrix(1.000000, 0.000000, 0.000000, 1.000000, 0.000000, 0.000000)" penpot:proportion="1.3333333333333333" penpot:proportion-lock="true" penpot:rotation="0" penpot:center-x="259.2424011230469" penpot:center-y="274.9242401123047"><penpot:svg-import penpot:svg-viewbox-x="0" penpot:svg-viewbox-y="0" penpot:svg-viewbox-width="60" penpot:svg-viewbox-height="45"></penpot:svg-import><penpot:svg-content penpot:x="229.24240112304688" penpot:y="252.4242401123047" penpot:width="60" penpot:height="45" penpot:tag="defs"></penpot:svg-content></penpot:shape><defs></defs><defs style="fill:#000000"></defs></g><g id="shape-e433fa85-8c4a-80d1-8004-635ddc6e6ec1" style="fill:#000000" clip-path="url(#render-1035-a)" rx="0" ry="0"><penpot:shape penpot:name="svg-g" penpot:type="group" penpot:transform="matrix(1.000000, 0.000000, 0.000000, 1.000000, 0.000000, 0.000000)" penpot:transform-inverse="matrix(1.000000, 0.000000, 0.000000, 1.000000, 0.000000, 0.000000)" penpot:flip-x="false" penpot:flip-y="false" penpot:proportion="1" penpot:proportion-lock="false" penpot:rotation="0" penpot:center-x="260.1681821230469" penpot:center-y="288.3198433645647"><penpot:svg-import penpot:svg-viewbox-x="9.351562000000001" penpot:svg-viewbox-y="28.150581504520005" penpot:svg-viewbox-width="43.148438" penpot:svg-attrs="clipPath" penpot:svg-defs="a" penpot:svg-viewbox-height="15.490043495479995" penpot:svg-transform="matrix(1.000000, 0.000000, 0.000000, 1.000000, 0.000000, 0.000000)"><penpot:svg-def def-id="a"><clipPath id="a"><path d="M 9.351562 28.0625 L 52.851562 28.0625 L 52.851562 43.8125 L 9.351562 43.8125 Z M 9.351562 28.0625"></path></clipPath></penpot:svg-def></penpot:svg-import></penpot:shape><defs><clipPath id="render-1035-a" class="svg-def" transform="matrix(1.000000, 0.000000, 0.000000, 1.000000, 229.242401, 252.424240)"><path d="M 9.351562 28.0625 L 52.851562 28.0625 L 52.851562 43.8125 L 9.351562 43.8125 Z M 9.351562 28.0625"></path></clipPath></defs><g id="shape-e433fa85-8c4a-80d1-8004-635ddc6e6ec8"><penpot:shape penpot:name="svg-path" penpot:type="path" penpot:transform="matrix(1.000000, 0.000000, 0.000000, 1.000000, 0.000000, 0.000000)" penpot:transform-inverse="matrix(1.000000, 0.000000, 0.000000, 1.000000, 0.000000, 0.000000)" penpot:proportion="1" penpot:proportion-lock="false" penpot:rotation="0" penpot:center-x="260.1681821230469" penpot:center-y="288.3198433645647"><penpot:svg-import penpot:svg-viewbox-x="9.351562" penpot:svg-viewbox-y="28.150581504520016" penpot:svg-viewbox-width="43.148438" penpot:svg-viewbox-height="15.490043495479984" penpot:svg-transform="matrix(1.000000, 0.000000, 0.000000, 1.000000, 0.000000, 0.000000)"></penpot:svg-import><penpot:fills><penpot:fill penpot:fill-color="#ed2025"></penpot:fill></penpot:fills></penpot:shape><defs></defs><g class="fills" id="fills-e433fa85-8c4a-80d1-8004-635ddc6e6ec8"><path d="M238.594,296.065L238.594,296.065ZC239.824,294.116,241.227,292.291,242.817,290.584C244.360,288.979,246.102,287.600,248.043,286.455C252.059,284.170,256.270,283.100,260.676,283.252C263.137,283.291,265.363,283.627,267.348,284.264C268.594,284.600,270.235,285.315,272.274,286.416C274.203,287.526,275.977,288.924,277.602,290.608C279.235,292.373,280.613,294.143,281.742,295.920C280.426,291.448,277.653,287.737,273.418,284.776C271.141,283.256,268.938,282.198,266.805,281.600C266.067,281.377,265.250,281.178,264.367,280.998C263.488,280.799,262.254,280.663,260.653,280.577C255.766,280.518,251.184,281.920,246.899,284.788C244.981,286.077,243.227,287.752,241.629,289.815C240.992,290.631,240.356,291.639,239.727,292.830C239.059,294.108,238.684,295.186,238.594,296.065Z" style="fill:#ed2025"></path></g></g></g><g id="shape-e433fa85-8c4a-80d1-8004-635ddc6e6ec2" style="fill:#000000" clip-path="url(#render-1037-b)" rx="0" ry="0"><penpot:shape penpot:name="svg-g" penpot:type="group" penpot:transform="matrix(1.000000, 0.000000, 0.000000, 1.000000, 0.000000, 0.000000)" penpot:transform-inverse="matrix(1.000000, 0.000000, 0.000000, 1.000000, 0.000000, 0.000000)" penpot:flip-x="false" penpot:flip-y="false" penpot:proportion="1" penpot:proportion-lock="false" penpot:rotation="0" penpot:center-x="264.51177754773136" penpot:center-y="287.88128037447893"><penpot:svg-import penpot:svg-viewbox-x="31.597346849368932" penpot:svg-viewbox-y="30.28515600000003" penpot:svg-viewbox-width="7.344059150631068" penpot:svg-attrs="clipPath" penpot:svg-defs="b" penpot:svg-viewbox-height="10.343768524348377" penpot:svg-transform="matrix(1.000000, 0.000000, 0.000000, 1.000000, 0.000000, 0.000000)"><penpot:svg-def def-id="b"><clipPath id="b"><path d="M 31 30 L 39 30 L 39 41 L 31 41 Z M 31 30"></path></clipPath></penpot:svg-def></penpot:svg-import></penpot:shape><defs><clipPath id="render-1037-b" class="svg-def" transform="matrix(1.000000, 0.000000, 0.000000, 1.000000, 229.242401, 252.424240)"><path d="M 31 30 L 39 30 L 39 41 L 31 41 Z M 31 30"></path></clipPath></defs><g id="shape-e433fa85-8c4a-80d1-8004-635ddc6e6ec9" style="fill:#000000" clip-path="url(#render-1038-c)" rx="0" ry="0"><penpot:shape penpot:name="svg-g" penpot:type="group" penpot:transform="matrix(1.000000, 0.000000, 0.000000, 1.000000, 0.000000, 0.000000)" penpot:transform-inverse="matrix(1.000000, 0.000000, 0.000000, 1.000000, 0.000000, 0.000000)" penpot:flip-x="false" penpot:flip-y="false" penpot:proportion="1" penpot:proportion-lock="false" penpot:rotation="0" penpot:center-x="264.51177754773136" penpot:center-y="287.88128037447893"><penpot:svg-import penpot:svg-viewbox-x="31.597346849368932" penpot:svg-viewbox-y="30.28515600000003" penpot:svg-viewbox-width="7.344059150631068" penpot:svg-attrs="clipPath" penpot:svg-defs="c" penpot:svg-viewbox-height="10.343768524348377" penpot:svg-transform="matrix(1.000000, 0.000000, 0.000000, 1.000000, 0.000000, 0.000000)"><penpot:svg-def def-id="c"><clipPath id="c"><path d="M 21.886719 10.664062 L 53.902344 -0.0117188 L 64.105469 30.582031 L 32.089844 41.257812 Z M 21.886719 10.664062"></path></clipPath></penpot:svg-def></penpot:svg-import></penpot:shape><defs><clipPath id="render-1038-c" class="svg-def" transform="matrix(1.000000, 0.000000, 0.000000, 1.000000, 229.242401, 252.424240)"><path d="M 21.886719 10.664062 L 53.902344 -0.0117188 L 64.105469 30.582031 L 32.089844 41.257812 Z M 21.886719 10.664062"></path></clipPath></defs><g id="shape-e433fa85-8c4a-80d1-8004-635ddc6e6eca" style="fill:#000000" clip-path="url(#render-1039-d)" rx="0" ry="0"><penpot:shape penpot:name="svg-g" penpot:type="group" penpot:transform="matrix(1.000000, 0.000000, 0.000000, 1.000000, 0.000000, 0.000000)" penpot:transform-inverse="matrix(1.000000, 0.000000, 0.000000, 1.000000, 0.000000, 0.000000)" penpot:flip-x="false" penpot:flip-y="false" penpot:proportion="1" penpot:proportion-lock="false" penpot:rotation="0" penpot:center-x="264.51177754773136" penpot:center-y="287.88128037447893"><penpot:svg-import penpot:svg-viewbox-x="31.597346849368932" penpot:svg-viewbox-y="30.28515600000003" penpot:svg-viewbox-width="7.344059150631068" penpot:svg-attrs="clipPath" penpot:svg-defs="d" penpot:svg-viewbox-height="10.343768524348377" penpot:svg-transform="matrix(1.000000, 0.000000, 0.000000, 1.000000, 0.000000, 0.000000)"><penpot:svg-def def-id="d"><clipPath id="d"><path d="M 21.886719 10.664062 L 53.902344 -0.0117188 L 64.105469 30.582031 L 32.089844 41.257812 Z M 21.886719 10.664062"></path></clipPath></penpot:svg-def></penpot:svg-import></penpot:shape><defs><clipPath id="render-1039-d" class="svg-def" transform="matrix(1.000000, 0.000000, 0.000000, 1.000000, 229.242401, 252.424240)"><path d="M 21.886719 10.664062 L 53.902344 -0.0117188 L 64.105469 30.582031 L 32.089844 41.257812 Z M 21.886719 10.664062"></path></clipPath></defs><g id="shape-e433fa85-8c4a-80d1-8004-635ddc6e6ecb"><penpot:shape penpot:name="svg-path" penpot:type="path" penpot:transform="matrix(1.000000, 0.000000, 0.000000, 1.000000, 0.000000, 0.000000)" penpot:transform-inverse="matrix(1.000000, 0.000000, 0.000000, 1.000000, 0.000000, 0.000000)" penpot:proportion="1" penpot:proportion-lock="false" penpot:rotation="0" penpot:center-x="264.51177754773136" penpot:center-y="287.88128037447893"><penpot:svg-import penpot:svg-viewbox-x="31.59734684936894" penpot:svg-viewbox-y="30.285156" penpot:svg-viewbox-width="7.344059150631061" penpot:svg-viewbox-height="10.343768524348384" penpot:svg-transform="matrix(1.000000, 0.000000, 0.000000, 1.000000, 0.000000, 0.000000)"></penpot:svg-import><penpot:fills><penpot:fill penpot:fill-color="#ed2025"></penpot:fill></penpot:fills></penpot:shape><defs></defs><g class="fills" id="fills-e433fa85-8c4a-80d1-8004-635ddc6e6ecb"><path d="M268.184,284.366L264.352,292.030C264.242,292.248,264.094,292.440,263.910,292.600C263.723,292.760,263.512,292.881,263.281,292.959C263.047,293.034,262.809,293.065,262.563,293.049C262.317,293.030,262.086,292.967,261.863,292.858C261.645,292.748,261.453,292.600,261.293,292.413C261.133,292.229,261.012,292.018,260.934,291.784C260.856,291.553,260.828,291.315,260.844,291.069C260.863,290.823,260.926,290.588,261.035,290.370L264.863,282.709L266.696,283.627ZM268.184,284.366" style="fill:#ed2025"></path></g></g></g></g></g><g id="shape-e433fa85-8c4a-80d1-8004-635ddc6e6ec3" style="fill:#000000" clip-path="url(#render-1041-e)" rx="0" ry="0"><penpot:shape penpot:name="svg-g" penpot:type="group" penpot:transform="matrix(1.000000, 0.000000, 0.000000, 1.000000, 0.000000, 0.000000)" penpot:transform-inverse="matrix(1.000000, 0.000000, 0.000000, 1.000000, 0.000000, 0.000000)" penpot:flip-x="false" penpot:flip-y="false" penpot:proportion="1" penpot:proportion-lock="false" penpot:rotation="0" penpot:center-x="279.742812850543" penpot:center-y="270.3871311123047"><penpot:svg-import penpot:svg-viewbox-x="45.167969" penpot:svg-viewbox-y="1.2421879999999987" penpot:svg-viewbox-width="10.664885454992216" penpot:svg-attrs="clipPath" penpot:svg-defs="e" penpot:svg-viewbox-height="33.44140599999997" penpot:svg-transform="matrix(1.000000, 0.000000, 0.000000, 1.000000, 0.000000, 0.000000)"><penpot:svg-def def-id="e"><clipPath id="e"><path d="M 45 1 L 56 1 L 56 35 L 45 35 Z M 45 1"></path></clipPath></penpot:svg-def></penpot:svg-import></penpot:shape><defs><clipPath id="render-1041-e" class="svg-def" transform="matrix(1.000000, 0.000000, 0.000000, 1.000000, 229.242401, 252.424240)"><path d="M 45 1 L 56 1 L 56 35 L 45 35 Z M 45 1"></path></clipPath></defs><g id="shape-e433fa85-8c4a-80d1-8004-635ddc6e6ecc" style="fill:#000000" clip-path="url(#render-1042-f)" rx="0" ry="0"><penpot:shape penpot:name="svg-g" penpot:type="group" penpot:transform="matrix(1.000000, 0.000000, 0.000000, 1.000000, 0.000000, 0.000000)" penpot:transform-inverse="matrix(1.000000, 0.000000, 0.000000, 1.000000, 0.000000, 0.000000)" penpot:flip-x="false" penpot:flip-y="false" penpot:proportion="1" penpot:proportion-lock="false" penpot:rotation="0" penpot:center-x="279.742812850543" penpot:center-y="270.3871311123047"><penpot:svg-import penpot:svg-viewbox-x="45.167969" penpot:svg-viewbox-y="1.2421879999999987" penpot:svg-viewbox-width="10.664885454992216" penpot:svg-attrs="clipPath" penpot:svg-defs="f" penpot:svg-viewbox-height="33.44140599999997" penpot:svg-transform="matrix(1.000000, 0.000000, 0.000000, 1.000000, 0.000000, 0.000000)"><penpot:svg-def def-id="f"><clipPath id="f"><path d="M 21.886719 10.664062 L 53.902344 -0.0117188 L 64.105469 30.582031 L 32.089844 41.257812 Z M 21.886719 10.664062"></path></clipPath></penpot:svg-def></penpot:svg-import></penpot:shape><defs><clipPath id="render-1042-f" class="svg-def" transform="matrix(1.000000, 0.000000, 0.000000, 1.000000, 229.242401, 252.424240)"><path d="M 21.886719 10.664062 L 53.902344 -0.0117188 L 64.105469 30.582031 L 32.089844 41.257812 Z M 21.886719 10.664062"></path></clipPath></defs><g id="shape-e433fa85-8c4a-80d1-8004-635ddc6e6ecd" style="fill:#000000" clip-path="url(#render-1043-g)" rx="0" ry="0"><penpot:shape penpot:name="svg-g" penpot:type="group" penpot:transform="matrix(1.000000, 0.000000, 0.000000, 1.000000, 0.000000, 0.000000)" penpot:transform-inverse="matrix(1.000000, 0.000000, 0.000000, 1.000000, 0.000000, 0.000000)" penpot:flip-x="false" penpot:flip-y="false" penpot:proportion="1" penpot:proportion-lock="false" penpot:rotation="0" penpot:center-x="279.742812850543" penpot:center-y="270.3871311123047"><penpot:svg-import penpot:svg-viewbox-x="45.167969" penpot:svg-viewbox-y="1.2421879999999987" penpot:svg-viewbox-width="10.664885454992216" penpot:svg-attrs="clipPath" penpot:svg-defs="g" penpot:svg-viewbox-height="33.44140599999997" penpot:svg-transform="matrix(1.000000, 0.000000, 0.000000, 1.000000, 0.000000, 0.000000)"><penpot:svg-def def-id="g"><clipPath id="g"><path d="M 21.886719 10.664062 L 53.902344 -0.0117188 L 64.105469 30.582031 L 32.089844 41.257812 Z M 21.886719 10.664062"></path></clipPath></penpot:svg-def></penpot:svg-import></penpot:shape><defs><clipPath id="render-1043-g" class="svg-def" transform="matrix(1.000000, 0.000000, 0.000000, 1.000000, 229.242401, 252.424240)"><path d="M 21.886719 10.664062 L 53.902344 -0.0117188 L 64.105469 30.582031 L 32.089844 41.257812 Z M 21.886719 10.664062"></path></clipPath></defs><g id="shape-e433fa85-8c4a-80d1-8004-635ddc6e6ece"><penpot:shape penpot:name="svg-path" penpot:type="path" penpot:transform="matrix(1.000000, 0.000000, 0.000000, 1.000000, 0.000000, 0.000000)" penpot:transform-inverse="matrix(1.000000, 0.000000, 0.000000, 1.000000, 0.000000, 0.000000)" penpot:proportion="1" penpot:proportion-lock="false" penpot:rotation="0" penpot:center-x="279.742812850543" penpot:center-y="270.3871311123047"><penpot:svg-import penpot:svg-viewbox-x="45.167969" penpot:svg-viewbox-y="1.242188" penpot:svg-viewbox-width="10.664885454992216" penpot:svg-viewbox-height="33.441406" penpot:svg-transform="matrix(1.000000, 0.000000, 0.000000, 1.000000, 0.000000, 0.000000)"></penpot:svg-import><penpot:fills><penpot:fill penpot:fill-color="#ed2025"></penpot:fill></penpot:fills></penpot:shape><defs></defs><g class="fills" id="fills-e433fa85-8c4a-80d1-8004-635ddc6e6ece"><path d="M283.426,272.733L276.246,287.108L274.410,286.190L281.051,272.909C281.406,272.202,281.703,271.475,281.946,270.721C282.188,269.971,282.371,269.209,282.500,268.428C282.625,267.651,282.692,266.866,282.699,266.077C282.707,265.288,282.656,264.502,282.547,263.721C282.434,262.940,282.266,262.174,282.039,261.416C281.813,260.663,281.528,259.928,281.192,259.217C280.852,258.502,280.461,257.819,280.020,257.166C279.578,256.514,279.090,255.897,278.555,255.319L279.379,253.666C280.055,254.225,280.684,254.838,281.258,255.502C281.832,256.166,282.348,256.873,282.805,257.623C283.262,258.377,283.653,259.159,283.977,259.979C284.297,260.795,284.551,261.631,284.735,262.491C284.918,263.350,285.028,264.221,285.063,265.100C285.098,265.975,285.059,266.850,284.949,267.725C284.836,268.596,284.653,269.452,284.399,270.291C284.141,271.131,283.817,271.948,283.426,272.733ZZM283.426,272.733" style="fill:#ed2025"></path></g></g></g></g></g><g id="shape-e433fa85-8c4a-80d1-8004-635ddc6e6ec4" style="fill:#000000" clip-path="url(#render-1045-h)" rx="0" ry="0"><penpot:shape penpot:name="svg-g" penpot:type="group" penpot:transform="matrix(1.000000, 0.000000, 0.000000, 1.000000, 0.000000, 0.000000)" penpot:transform-inverse="matrix(1.000000, 0.000000, 0.000000, 1.000000, 0.000000, 0.000000)" penpot:flip-x="false" penpot:flip-y="false" penpot:proportion="1" penpot:proportion-lock="false" penpot:rotation="0" penpot:center-x="273.46087795558657" penpot:center-y="271.0511936123047"><penpot:svg-import penpot:svg-viewbox-x="36.140625" penpot:svg-viewbox-y="4.011719000000028" penpot:svg-viewbox-width="16.15570366507938" penpot:svg-attrs="clipPath" penpot:svg-defs="h" penpot:svg-viewbox-height="29.23046899999997" penpot:svg-transform="matrix(1.000000, 0.000000, 0.000000, 1.000000, 0.000000, 0.000000)"><penpot:svg-def def-id="h"><clipPath id="h"><path d="M 36 4 L 53 4 L 53 34 L 36 34 Z M 36 4"></path></clipPath></penpot:svg-def></penpot:svg-import></penpot:shape><defs><clipPath id="render-1045-h" class="svg-def" transform="matrix(1.000000, 0.000000, 0.000000, 1.000000, 229.242401, 252.424240)"><path d="M 36 4 L 53 4 L 53 34 L 36 34 Z M 36 4"></path></clipPath></defs><g id="shape-e433fa85-8c4a-80d1-8004-635ddc6e6ecf" style="fill:#000000" clip-path="url(#render-1046-i)" rx="0" ry="0"><penpot:shape penpot:name="svg-g" penpot:type="group" penpot:transform="matrix(1.000000, 0.000000, 0.000000, 1.000000, 0.000000, 0.000000)" penpot:transform-inverse="matrix(1.000000, 0.000000, 0.000000, 1.000000, 0.000000, 0.000000)" penpot:flip-x="false" penpot:flip-y="false" penpot:proportion="1" penpot:proportion-lock="false" penpot:rotation="0" penpot:center-x="273.46087795558657" penpot:center-y="271.0511936123047"><penpot:svg-import penpot:svg-viewbox-x="36.140625" penpot:svg-viewbox-y="4.011719000000028" penpot:svg-viewbox-width="16.15570366507938" penpot:svg-attrs="clipPath" penpot:svg-defs="i" penpot:svg-viewbox-height="29.23046899999997" penpot:svg-transform="matrix(1.000000, 0.000000, 0.000000, 1.000000, 0.000000, 0.000000)"><penpot:svg-def def-id="i"><clipPath id="i"><path d="M 21.886719 10.664062 L 53.902344 -0.0117188 L 64.105469 30.582031 L 32.089844 41.257812 Z M 21.886719 10.664062"></path></clipPath></penpot:svg-def></penpot:svg-import></penpot:shape><defs><clipPath id="render-1046-i" class="svg-def" transform="matrix(1.000000, 0.000000, 0.000000, 1.000000, 229.242401, 252.424240)"><path d="M 21.886719 10.664062 L 53.902344 -0.0117188 L 64.105469 30.582031 L 32.089844 41.257812 Z M 21.886719 10.664062"></path></clipPath></defs><g id="shape-e433fa85-8c4a-80d1-8004-635ddc6e6ed0" style="fill:#000000" clip-path="url(#render-1047-j)" rx="0" ry="0"><penpot:shape penpot:name="svg-g" penpot:type="group" penpot:transform="matrix(1.000000, 0.000000, 0.000000, 1.000000, 0.000000, 0.000000)" penpot:transform-inverse="matrix(1.000000, 0.000000, 0.000000, 1.000000, 0.000000, 0.000000)" penpot:flip-x="false" penpot:flip-y="false" penpot:proportion="1" penpot:proportion-lock="false" penpot:rotation="0" penpot:center-x="273.46087795558657" penpot:center-y="271.0511936123047"><penpot:svg-import penpot:svg-viewbox-x="36.140625" penpot:svg-viewbox-y="4.011719000000028" penpot:svg-viewbox-width="16.15570366507938" penpot:svg-attrs="clipPath" penpot:svg-defs="j" penpot:svg-viewbox-height="29.23046899999997" penpot:svg-transform="matrix(1.000000, 0.000000, 0.000000, 1.000000, 0.000000, 0.000000)"><penpot:svg-def def-id="j"><clipPath id="j"><path d="M 21.886719 10.664062 L 53.902344 -0.0117188 L 64.105469 30.582031 L 32.089844 41.257812 Z M 21.886719 10.664062"></path></clipPath></penpot:svg-def></penpot:svg-import></penpot:shape><defs><clipPath id="render-1047-j" class="svg-def" transform="matrix(1.000000, 0.000000, 0.000000, 1.000000, 229.242401, 252.424240)"><path d="M 21.886719 10.664062 L 53.902344 -0.0117188 L 64.105469 30.582031 L 32.089844 41.257812 Z M 21.886719 10.664062"></path></clipPath></defs><g id="shape-e433fa85-8c4a-80d1-8004-635ddc6e6ed1"><penpot:shape penpot:name="svg-path" penpot:type="path" penpot:transform="matrix(1.000000, 0.000000, 0.000000, 1.000000, 0.000000, 0.000000)" penpot:transform-inverse="matrix(1.000000, 0.000000, 0.000000, 1.000000, 0.000000, 0.000000)" penpot:proportion="1" penpot:proportion-lock="false" penpot:rotation="0" penpot:center-x="273.46087795558657" penpot:center-y="271.0511936123047"><penpot:svg-import penpot:svg-viewbox-x="36.140625" penpot:svg-viewbox-y="4.011719" penpot:svg-viewbox-width="16.15570366507938" penpot:svg-viewbox-height="29.230469" penpot:svg-transform="matrix(1.000000, 0.000000, 0.000000, 1.000000, 0.000000, 0.000000)"></penpot:svg-import><penpot:fills><penpot:fill penpot:fill-color="#ed2025"></penpot:fill></penpot:fills></penpot:shape><defs></defs><g class="fills" id="fills-e433fa85-8c4a-80d1-8004-635ddc6e6ed1"><path d="M280.012,272.381L273.375,285.666L265.383,281.670L277.996,256.436C278.461,256.971,278.887,257.541,279.270,258.143C279.653,258.741,279.988,259.366,280.278,260.014C280.571,260.666,280.809,261.330,281.004,262.018C281.196,262.702,281.336,263.397,281.422,264.104C281.512,264.807,281.551,265.518,281.535,266.229C281.520,266.940,281.453,267.647,281.332,268.346C281.215,269.049,281.043,269.737,280.821,270.413C280.602,271.088,280.332,271.745,280.012,272.381ZZM280.012,272.381" style="fill:#ed2025"></path></g></g></g></g></g><g id="shape-e433fa85-8c4a-80d1-8004-635ddc6e6ec5" style="fill:#000000" clip-path="url(#render-1049-k)" rx="0" ry="0"><penpot:shape penpot:name="svg-g" penpot:type="group" penpot:transform="matrix(1.000000, 0.000000, 0.000000, 1.000000, 0.000000, 0.000000)" penpot:transform-inverse="matrix(1.000000, 0.000000, 0.000000, 1.000000, 0.000000, 0.000000)" penpot:flip-x="false" penpot:flip-y="false" penpot:proportion="1" penpot:proportion-lock="false" penpot:rotation="0" penpot:center-x="254.828267756017" penpot:center-y="288.13767613193806"><penpot:svg-import penpot:svg-viewbox-x="21.734375" penpot:svg-viewbox-y="30.60546899999997" penpot:svg-viewbox-width="7.702983265940205" penpot:svg-attrs="clipPath" penpot:svg-defs="k" penpot:svg-viewbox-height="10.215934039266813" penpot:svg-transform="matrix(1.000000, 0.000000, 0.000000, 1.000000, 0.000000, 0.000000)"><penpot:svg-def def-id="k"><clipPath id="k"><path d="M 21 30 L 30 30 L 30 41 L 21 41 Z M 21 30"></path></clipPath></penpot:svg-def></penpot:svg-import></penpot:shape><defs><clipPath id="render-1049-k" class="svg-def" transform="matrix(1.000000, 0.000000, 0.000000, 1.000000, 229.242401, 252.424240)"><path d="M 21 30 L 30 30 L 30 41 L 21 41 Z M 21 30"></path></clipPath></defs><g id="shape-e433fa85-8c4a-80d1-8004-635ddc6e6ed2" style="fill:#000000" clip-path="url(#render-1050-l)" rx="0" ry="0"><penpot:shape penpot:name="svg-g" penpot:type="group" penpot:transform="matrix(1.000000, 0.000000, 0.000000, 1.000000, 0.000000, 0.000000)" penpot:transform-inverse="matrix(1.000000, 0.000000, 0.000000, 1.000000, 0.000000, 0.000000)" penpot:flip-x="false" penpot:flip-y="false" penpot:proportion="1" penpot:proportion-lock="false" penpot:rotation="0" penpot:center-x="254.828267756017" penpot:center-y="288.13767613193806"><penpot:svg-import penpot:svg-viewbox-x="21.734375" penpot:svg-viewbox-y="30.60546899999997" penpot:svg-viewbox-width="7.702983265940205" penpot:svg-attrs="clipPath" penpot:svg-defs="l" penpot:svg-viewbox-height="10.215934039266813" penpot:svg-transform="matrix(1.000000, 0.000000, 0.000000, 1.000000, 0.000000, 0.000000)"><penpot:svg-def def-id="l"><clipPath id="l"><path d="M 5.117188 1.347656 L 37.664062 10.285156 L 29.125 41.386719 L -3.421875 32.449219 Z M 5.117188 1.347656"></path></clipPath></penpot:svg-def></penpot:svg-import></penpot:shape><defs><clipPath id="render-1050-l" class="svg-def" transform="matrix(1.000000, 0.000000, 0.000000, 1.000000, 229.242401, 252.424240)"><path d="M 5.117188 1.347656 L 37.664062 10.285156 L 29.125 41.386719 L -3.421875 32.449219 Z M 5.117188 1.347656"></path></clipPath></defs><g id="shape-e433fa85-8c4a-80d1-8004-635ddc6e6ed3" style="fill:#000000" clip-path="url(#render-1051-m)" rx="0" ry="0"><penpot:shape penpot:name="svg-g" penpot:type="group" penpot:transform="matrix(1.000000, 0.000000, 0.000000, 1.000000, 0.000000, 0.000000)" penpot:transform-inverse="matrix(1.000000, 0.000000, 0.000000, 1.000000, 0.000000, 0.000000)" penpot:flip-x="false" penpot:flip-y="false" penpot:proportion="1" penpot:proportion-lock="false" penpot:rotation="0" penpot:center-x="254.828267756017" penpot:center-y="288.13767613193806"><penpot:svg-import penpot:svg-viewbox-x="21.734375" penpot:svg-viewbox-y="30.60546899999997" penpot:svg-viewbox-width="7.702983265940205" penpot:svg-attrs="clipPath" penpot:svg-defs="m" penpot:svg-viewbox-height="10.215934039266813" penpot:svg-transform="matrix(1.000000, 0.000000, 0.000000, 1.000000, 0.000000, 0.000000)"><penpot:svg-def def-id="m"><clipPath id="m"><path d="M 37.617188 10.273438 L 5.074219 1.335938 L -3.464844 32.433594 L 29.078125 41.371094 Z M 37.617188 10.273438"></path></clipPath></penpot:svg-def></penpot:svg-import></penpot:shape><defs><clipPath id="render-1051-m" class="svg-def" transform="matrix(1.000000, 0.000000, 0.000000, 1.000000, 229.242401, 252.424240)"><path d="M 37.617188 10.273438 L 5.074219 1.335938 L -3.464844 32.433594 L 29.078125 41.371094 Z M 37.617188 10.273438"></path></clipPath></defs><g id="shape-e433fa85-8c4a-80d1-8004-635ddc6e6ed4"><penpot:shape penpot:name="svg-path" penpot:type="path" penpot:transform="matrix(1.000000, 0.000000, 0.000000, 1.000000, 0.000000, 0.000000)" penpot:transform-inverse="matrix(1.000000, 0.000000, 0.000000, 1.000000, 0.000000, 0.000000)" penpot:proportion="1" penpot:proportion-lock="false" penpot:rotation="0" penpot:center-x="254.828267756017" penpot:center-y="288.13767613193806"><penpot:svg-import penpot:svg-viewbox-x="21.734375" penpot:svg-viewbox-y="30.605469" penpot:svg-viewbox-width="7.702983265940201" penpot:svg-viewbox-height="10.21593403926677" penpot:svg-transform="matrix(1.000000, 0.000000, 0.000000, 1.000000, 0.000000, 0.000000)"></penpot:svg-import><penpot:fills><penpot:fill penpot:fill-color="#ed2025"></penpot:fill></penpot:fills></penpot:shape><defs></defs><g class="fills" id="fills-e433fa85-8c4a-80d1-8004-635ddc6e6ed4"><path d="M250.977,284.866L255.215,292.311C255.336,292.522,255.496,292.705,255.688,292.858C255.883,293.006,256.098,293.116,256.336,293.178C256.574,293.245,256.813,293.260,257.059,293.233C257.301,293.202,257.531,293.123,257.742,293.002C257.957,292.881,258.141,292.725,258.289,292.530C258.442,292.334,258.547,292.120,258.613,291.881C258.680,291.647,258.696,291.405,258.664,291.163C258.637,290.916,258.559,290.690,258.438,290.475L254.203,283.030L252.422,284.045ZM250.977,284.866" style="fill:#ed2025"></path></g></g></g></g></g><g id="shape-e433fa85-8c4a-80d1-8004-635ddc6e6ec6" style="fill:#000000" clip-path="url(#render-1053-n)" rx="0" ry="0"><penpot:shape penpot:name="svg-g" penpot:type="group" penpot:transform="matrix(1.000000, 0.000000, 0.000000, 1.000000, 0.000000, 0.000000)" penpot:transform-inverse="matrix(1.000000, 0.000000, 0.000000, 1.000000, 0.000000, 0.000000)" penpot:flip-x="false" penpot:flip-y="false" penpot:proportion="1" penpot:proportion-lock="false" penpot:rotation="0" penpot:center-x="238.9702227224234" penpot:center-y="271.4242401123047"><penpot:svg-import penpot:svg-viewbox-x="3.8423621987530083" penpot:svg-viewbox-y="2.386719000000028" penpot:svg-viewbox-width="11.770918801246992" penpot:svg-attrs="clipPath" penpot:svg-defs="n" penpot:svg-viewbox-height="33.226562" penpot:svg-transform="matrix(1.000000, 0.000000, 0.000000, 1.000000, 0.000000, 0.000000)"><penpot:svg-def def-id="n"><clipPath id="n"><path d="M 3 2 L 16 2 L 16 36 L 3 36 Z M 3 2"></path></clipPath></penpot:svg-def></penpot:svg-import></penpot:shape><defs><clipPath id="render-1053-n" class="svg-def" transform="matrix(1.000000, 0.000000, 0.000000, 1.000000, 229.242401, 252.424240)"><path d="M 3 2 L 16 2 L 16 36 L 3 36 Z M 3 2"></path></clipPath></defs><g id="shape-e433fa85-8c4a-80d1-8004-635ddc6e6ed5" style="fill:#000000" clip-path="url(#render-1054-o)" rx="0" ry="0"><penpot:shape penpot:name="svg-g" penpot:type="group" penpot:transform="matrix(1.000000, 0.000000, 0.000000, 1.000000, 0.000000, 0.000000)" penpot:transform-inverse="matrix(1.000000, 0.000000, 0.000000, 1.000000, 0.000000, 0.000000)" penpot:flip-x="false" penpot:flip-y="false" penpot:proportion="1" penpot:proportion-lock="false" penpot:rotation="0" penpot:center-x="238.9702227224234" penpot:center-y="271.4242401123047"><penpot:svg-import penpot:svg-viewbox-x="3.8423621987530083" penpot:svg-viewbox-y="2.386719000000028" penpot:svg-viewbox-width="11.770918801246992" penpot:svg-attrs="clipPath" penpot:svg-defs="o" penpot:svg-viewbox-height="33.226562" penpot:svg-transform="matrix(1.000000, 0.000000, 0.000000, 1.000000, 0.000000, 0.000000)"><penpot:svg-def def-id="o"><clipPath id="o"><path d="M 5.117188 1.347656 L 37.664062 10.285156 L 29.125 41.386719 L -3.421875 32.449219 Z M 5.117188 1.347656"></path></clipPath></penpot:svg-def></penpot:svg-import></penpot:shape><defs><clipPath id="render-1054-o" class="svg-def" transform="matrix(1.000000, 0.000000, 0.000000, 1.000000, 229.242401, 252.424240)"><path d="M 5.117188 1.347656 L 37.664062 10.285156 L 29.125 41.386719 L -3.421875 32.449219 Z M 5.117188 1.347656"></path></clipPath></defs><g id="shape-e433fa85-8c4a-80d1-8004-635ddc6e6ed6" style="fill:#000000" clip-path="url(#render-1055-p)" rx="0" ry="0"><penpot:shape penpot:name="svg-g" penpot:type="group" penpot:transform="matrix(1.000000, 0.000000, 0.000000, 1.000000, 0.000000, 0.000000)" penpot:transform-inverse="matrix(1.000000, 0.000000, 0.000000, 1.000000, 0.000000, 0.000000)" penpot:flip-x="false" penpot:flip-y="false" penpot:proportion="1" penpot:proportion-lock="false" penpot:rotation="0" penpot:center-x="238.9702227224234" penpot:center-y="271.4242401123047"><penpot:svg-import penpot:svg-viewbox-x="3.8423621987530083" penpot:svg-viewbox-y="2.386719000000028" penpot:svg-viewbox-width="11.770918801246992" penpot:svg-attrs="clipPath" penpot:svg-defs="p" penpot:svg-viewbox-height="33.226562" penpot:svg-transform="matrix(1.000000, 0.000000, 0.000000, 1.000000, 0.000000, 0.000000)"><penpot:svg-def def-id="p"><clipPath id="p"><path d="M 37.617188 10.273438 L 5.074219 1.335938 L -3.464844 32.433594 L 29.078125 41.371094 Z M 37.617188 10.273438"></path></clipPath></penpot:svg-def></penpot:svg-import></penpot:shape><defs><clipPath id="render-1055-p" class="svg-def" transform="matrix(1.000000, 0.000000, 0.000000, 1.000000, 229.242401, 252.424240)"><path d="M 37.617188 10.273438 L 5.074219 1.335938 L -3.464844 32.433594 L 29.078125 41.371094 Z M 37.617188 10.273438"></path></clipPath></defs><g id="shape-e433fa85-8c4a-80d1-8004-635ddc6e6ed7"><penpot:shape penpot:name="svg-path" penpot:type="path" penpot:transform="matrix(1.000000, 0.000000, 0.000000, 1.000000, 0.000000, 0.000000)" penpot:transform-inverse="matrix(1.000000, 0.000000, 0.000000, 1.000000, 0.000000, 0.000000)" penpot:proportion="1" penpot:proportion-lock="false" penpot:rotation="0" penpot:center-x="238.9702227224234" penpot:center-y="271.4242401123047"><penpot:svg-import penpot:svg-viewbox-x="3.8423621987530145" penpot:svg-viewbox-y="2.386719" penpot:svg-viewbox-width="11.770918801246985" penpot:svg-viewbox-height="33.226562" penpot:svg-transform="matrix(1.000000, 0.000000, 0.000000, 1.000000, 0.000000, 0.000000)"></penpot:svg-import><penpot:fills><penpot:fill penpot:fill-color="#ed2025"></penpot:fill></penpot:fills></penpot:shape><defs></defs><g class="fills" id="fills-e433fa85-8c4a-80d1-8004-635ddc6e6ed7"><path d="M235.133,274.069L243.074,288.038L244.856,287.022L237.512,274.116C237.121,273.428,236.785,272.717,236.500,271.983C236.219,271.245,235.992,270.491,235.824,269.721C235.656,268.952,235.547,268.170,235.496,267.385C235.446,266.596,235.457,265.811,235.524,265.026C235.594,264.237,235.719,263.463,235.906,262.694C236.094,261.928,236.336,261.182,236.637,260.452C236.934,259.721,237.289,259.018,237.696,258.342C238.102,257.666,238.555,257.022,239.059,256.416L238.145,254.811C237.500,255.409,236.906,256.053,236.367,256.745C235.828,257.440,235.352,258.174,234.938,258.948C234.524,259.725,234.176,260.530,233.895,261.362C233.617,262.194,233.410,263.045,233.274,263.913C233.137,264.780,233.074,265.655,233.086,266.534C233.098,267.413,233.184,268.284,233.340,269.147C233.500,270.014,233.727,270.858,234.028,271.682C234.328,272.510,234.696,273.303,235.133,274.069ZZM235.133,274.069" style="fill:#ed2025"></path></g></g></g></g></g><g id="shape-e433fa85-8c4a-80d1-8004-635ddc6e6ec7" style="fill:#000000" clip-path="url(#render-1057-q)" rx="0" ry="0"><penpot:shape penpot:name="svg-g" penpot:type="group" penpot:transform="matrix(1.000000, 0.000000, 0.000000, 1.000000, 0.000000, 0.000000)" penpot:transform-inverse="matrix(1.000000, 0.000000, 0.000000, 1.000000, 0.000000, 0.000000)" penpot:flip-x="false" penpot:flip-y="false" penpot:proportion="1" penpot:proportion-lock="false" penpot:rotation="0" penpot:center-x="245.12789259063175" penpot:center-y="271.9730681123047"><penpot:svg-import penpot:svg-viewbox-x="7.384263935169784" penpot:svg-viewbox-y="5.078125" penpot:svg-viewbox-width="17.002455064830215" penpot:svg-attrs="clipPath" penpot:svg-defs="q" penpot:svg-viewbox-height="28.94140600000003" penpot:svg-transform="matrix(1.000000, 0.000000, 0.000000, 1.000000, 0.000000, 0.000000)"><penpot:svg-def def-id="q"><clipPath id="q"><path d="M 7 5 L 25 5 L 25 35 L 7 35 Z M 7 5"></path></clipPath></penpot:svg-def></penpot:svg-import></penpot:shape><defs><clipPath id="render-1057-q" class="svg-def" transform="matrix(1.000000, 0.000000, 0.000000, 1.000000, 229.242401, 252.424240)"><path d="M 7 5 L 25 5 L 25 35 L 7 35 Z M 7 5"></path></clipPath></defs><g id="shape-e433fa85-8c4a-80d1-8004-635ddc6e6ed8" style="fill:#000000" clip-path="url(#render-1058-r)" rx="0" ry="0"><penpot:shape penpot:name="svg-g" penpot:type="group" penpot:transform="matrix(1.000000, 0.000000, 0.000000, 1.000000, 0.000000, 0.000000)" penpot:transform-inverse="matrix(1.000000, 0.000000, 0.000000, 1.000000, 0.000000, 0.000000)" penpot:flip-x="false" penpot:flip-y="false" penpot:proportion="1" penpot:proportion-lock="false" penpot:rotation="0" penpot:center-x="245.12789259063175" penpot:center-y="271.9730681123047"><penpot:svg-import penpot:svg-viewbox-x="7.384263935169784" penpot:svg-viewbox-y="5.078125" penpot:svg-viewbox-width="17.002455064830215" penpot:svg-attrs="clipPath" penpot:svg-defs="r" penpot:svg-viewbox-height="28.94140600000003" penpot:svg-transform="matrix(1.000000, 0.000000, 0.000000, 1.000000, 0.000000, 0.000000)"><penpot:svg-def def-id="r"><clipPath id="r"><path d="M 5.117188 1.347656 L 37.664062 10.285156 L 29.125 41.386719 L -3.421875 32.449219 Z M 5.117188 1.347656"></path></clipPath></penpot:svg-def></penpot:svg-import></penpot:shape><defs><clipPath id="render-1058-r" class="svg-def" transform="matrix(1.000000, 0.000000, 0.000000, 1.000000, 229.242401, 252.424240)"><path d="M 5.117188 1.347656 L 37.664062 10.285156 L 29.125 41.386719 L -3.421875 32.449219 Z M 5.117188 1.347656"></path></clipPath></defs><g id="shape-e433fa85-8c4a-80d1-8004-635ddc6e6ed9" style="fill:#000000" clip-path="url(#render-1059-s)" rx="0" ry="0"><penpot:shape penpot:name="svg-g" penpot:type="group" penpot:transform="matrix(1.000000, 0.000000, 0.000000, 1.000000, 0.000000, 0.000000)" penpot:transform-inverse="matrix(1.000000, 0.000000, 0.000000, 1.000000, 0.000000, 0.000000)" penpot:flip-x="false" penpot:flip-y="false" penpot:proportion="1" penpot:proportion-lock="false" penpot:rotation="0" penpot:center-x="245.12789259063175" penpot:center-y="271.9730681123047"><penpot:svg-import penpot:svg-viewbox-x="7.384263935169784" penpot:svg-viewbox-y="5.078125" penpot:svg-viewbox-width="17.002455064830215" penpot:svg-attrs="clipPath" penpot:svg-defs="s" penpot:svg-viewbox-height="28.94140600000003" penpot:svg-transform="matrix(1.000000, 0.000000, 0.000000, 1.000000, 0.000000, 0.000000)"><penpot:svg-def def-id="s"><clipPath id="s"><path d="M 37.617188 10.273438 L 5.074219 1.335938 L -3.464844 32.433594 L 29.078125 41.371094 Z M 37.617188 10.273438"></path></clipPath></penpot:svg-def></penpot:svg-import></penpot:shape><defs><clipPath id="render-1059-s" class="svg-def" transform="matrix(1.000000, 0.000000, 0.000000, 1.000000, 229.242401, 252.424240)"><path d="M 37.617188 10.273438 L 5.074219 1.335938 L -3.464844 32.433594 L 29.078125 41.371094 Z M 37.617188 10.273438"></path></clipPath></defs><g id="shape-e433fa85-8c4a-80d1-8004-635ddc6e6eda"><penpot:shape penpot:name="svg-path" penpot:type="path" penpot:transform="matrix(1.000000, 0.000000, 0.000000, 1.000000, 0.000000, 0.000000)" penpot:transform-inverse="matrix(1.000000, 0.000000, 0.000000, 1.000000, 0.000000, 0.000000)" penpot:proportion="1" penpot:proportion-lock="false" penpot:rotation="0" penpot:center-x="245.12789259063175" penpot:center-y="271.9730681123047"><penpot:svg-import penpot:svg-viewbox-x="7.384263935169786" penpot:svg-viewbox-y="5.078125" penpot:svg-viewbox-width="17.002455064830215" penpot:svg-viewbox-height="28.941406" penpot:svg-transform="matrix(1.000000, 0.000000, 0.000000, 1.000000, 0.000000, 0.000000)"></penpot:svg-import><penpot:fills><penpot:fill penpot:fill-color="#ed2025"></penpot:fill></penpot:fills></penpot:shape><defs></defs><g class="fills" id="fills-e433fa85-8c4a-80d1-8004-635ddc6e6eda"><path d="M238.520,273.534L245.863,286.444L253.629,282.022L239.676,257.502C239.238,258.065,238.844,258.655,238.496,259.276C238.145,259.893,237.844,260.538,237.590,261.202C237.332,261.866,237.129,262.541,236.973,263.237C236.821,263.932,236.715,264.635,236.664,265.342C236.613,266.053,236.613,266.764,236.668,267.471C236.723,268.182,236.828,268.881,236.985,269.577C237.141,270.272,237.348,270.948,237.606,271.612C237.863,272.276,238.168,272.916,238.520,273.534ZZM238.520,273.534" style="fill:#ed2025"></path></g></g></g></g></g></g></g></g></g></svg>